Patient4_TMGait_0pt2_03_left_01_EMG.mot
version=1
nRows=33
nColumns=33
inDegrees=no
endheader
time	1LAddLong	2LGlutMax	3LGlutMed	4LIliopsoas	5LSemiMemb	6LBicFemLong	7LRecFem	8LVastMed	9LVastLat	10LGasMed	11LTibAnt	12lTibPost	13LPeroneusLong	14LSol	15LExtDigLong	16LFlexDigLong	17RAddLong	18RGlutMax	19RGlutMed	20RIliopsoas	21RSemiMemb	22RBicFemLong	23RRecFem	24RVastMed	25RVastLat	26RGasMed	27RTibAnt	28RTibPost	29RPeroneusLong	30RSol	31RExtDigLong	32RFlexDigLong
3.045	0.001984	0.005798	0.00473	0.009613	-0.001831	-0.00412	-0.03952	-0.001373	-0.012817	-0.004425	-0.018311	-0.009613	-0.047302	-0.008087	-0.002441	0.001221	-0.10147	-0.28336	-0.31601	-0.021362	0.37308	-0.043182	0.20889	1.2253	0.31464	-0.003204	0.14496	-0.004578	1.0574	0.048981	0.002289	-0.015564
3.046	0.014038	0.010529	-0.000458	-0.010223	-0.00351	-0.007172	-0.029144	0.005646	-0.005798	-0.00885	0.038147	-0.009918	-0.076141	-0.005493	0.004578	0.012054	-0.099182	-0.20798	0.38895	-0.089264	0.19608	-0.14343	-0.48263	1.1046	0.10941	-0.000458	0.055084	-0.031281	0.6221	0.027924	0.002899	-0.006256
3.047	0.014343	0.01236	-0.011749	-0.008545	-0.002747	0.010986	-0.037079	0.005493	-0.000763	-0.029755	0.033875	-0.009003	-0.088348	-0.000458	0.013733	0.003357	-0.1828	-0.26154	0.58105	-0.1062	0.10147	-0.1358	-1.0643	0.58762	-0.088501	0.010223	0.018463	-0.2594	-0.16586	-0.19333	-0.007324	-0.003357
3.048	0.005035	0.014496	-0.046997	-0.004578	-0.011597	0.012054	-0.030518	0.007324	0	-0.028992	0.033569	-0.014801	-0.071869	-0.000763	0.017242	0.016174	-0.19669	-0.33676	0.24963	-0.15762	0.080109	-0.13473	-1.0751	-0.19882	-0.18585	-0.024414	-0.045624	-0.064697	0.26321	-0.32303	0.002747	-0.011292
3.049	0.000305	0.018768	-0.12009	0.012512	-0.007324	0.007935	-0.013885	-0.001678	0.003967	-0.018005	0.021973	0.002136	-0.043793	0.014343	0.019836	0.023346	-0.11444	-0.39383	1.0167	-0.17471	0.072937	-0.17105	-0.61447	-0.62943	-0.16846	-0.018311	-0.021667	0.071106	0.51559	-0.23956	0.001984	-0.020447
3.05	0.017395	-0.007019	-0.16602	0.016632	-0.008545	0.012207	-0.029907	0.003967	-0.00473	-0.026093	-0.008698	-0.020447	-0.040741	0.00885	0.025482	0.011139	-0.066223	-0.38895	0.083771	-0.14206	0.11353	-0.17548	-0.44037	-0.48263	0.001831	-0.007935	-0.04364	0.12665	0.48721	0.40695	-0.000305	-0.014038
3.051	0.013123	0.003662	-0.18478	0.001373	-0.004578	0.002136	-0.010986	0.001831	-0.006409	-0.016174	-0.031738	-0.00351	-0.066833	-0.004578	0.011902	0.011444	0.010223	-0.36987	-0.21683	-0.10803	0.2301	-0.072327	-0.22186	-0.63767	0.17212	0.00351	0.020294	0.071259	-0.67963	0.76996	-0.00061	-0.007019
3.052	0.007324	0.008392	-0.072021	-0.015411	-0.005188	-0.011292	-0.008545	-0.000153	0.000916	-0.036316	-0.044098	-0.007019	-0.03952	-0.003052	-0.019684	0.016937	0.083923	-0.3624	0.35858	-0.059509	0.26794	-0.050812	0.009003	-0.78796	0.2066	0.009003	-0.02182	0.056	-0.80109	0.3537	-0.001678	-0.000763
3.053	0.016479	0.032501	0.016632	-0.00824	-0.000305	-0.017242	0.009155	0.000763	0.001831	-0.056763	-0.026855	-0.01358	-0.072784	-0.00351	-0.042419	0.017242	0.099792	-0.35858	-0.007477	-0.012512	0.041046	0.032349	0.26688	-0.37674	0.14847	-0.037079	-0.022583	0.058899	-0.34927	-0.44113	-0.000458	-0.014191
3.054	0.00824	0.05188	0.093842	0.00885	0.001678	-0.003204	0.007935	-0.000916	0.002747	-0.056458	-0.011902	-0.017853	-0.065918	-0.001221	-0.028534	0.003662	0.022583	-0.44205	-0.64758	0.044403	-0.43884	0.089111	0.2977	-0.0354	0.17181	-0.065002	0.017395	-0.43732	0.32944	-1.2065	0.001221	-0.018768
3.055	0.00824	0.016022	0.052032	0.017242	-0.007019	-0.021362	0.012207	0	0.009766	-0.046692	-0.009918	-0.0177	-0.057068	-0.027466	-0.015869	0.015106	-0.00412	-0.48874	-1.0828	0.066986	-0.63416	0.15091	0.39414	-0.24674	0.19562	-0.047607	-0.03418	-0.071869	0.57281	-1.3202	0.000763	-0.007477
3.056	0.019226	0.001068	0.064697	0.027618	-0.003052	-0.010529	0.023804	0.001678	0.00351	-0.054016	-0.002136	-0.031891	-0.051727	-0.028534	-0.018158	0.013123	0.004578	-0.35156	-0.90317	0.092316	-0.13367	0.054169	0.27268	0.12238	0.23331	-0.031738	0.081177	0.16754	0.11719	-0.5719	-0.00061	-0.025482
3.057	0.011139	-0.01297	0.020447	0.014954	-0.005493	-0.00824	0.037537	0.002136	-0.00061	-0.024567	0.004425	-0.007782	-0.008545	-0.015869	-0.010071	0.019989	0.024261	-0.35446	-0.14908	0.010071	0.27374	-0.067902	0.25848	0.19623	0.3865	-0.024872	0.073242	0.24277	-0.11581	0.23865	0.003357	-0.014191
3.058	0.007019	0.009003	0.11734	-0.005035	-0.005493	0.011139	0.057068	0.000153	-0.006104	-0.037537	-0.000153	-0.025482	0.034485	-0.006866	0.000916	0.013123	0.061646	-0.2211	0.1152	-0.051422	-0.13123	-0.18616	0.36194	0.14603	0.41641	-0.014954	0.00351	0.10101	0.22018	0.37643	-0.000916	0.005188
3.059	0.015411	0.033722	0.087433	0.013275	-0.005188	0.011749	0.041656	0.004425	-0.00351	-0.023499	0.002441	-0.023956	0.000763	-0.002747	0.002899	0.018005	0.078583	-0.085602	0.97641	-0.13382	-0.49271	-0.088501	0.48462	-0.22964	0.46692	-0.015259	-0.026398	0.024872	-0.046387	0.77423	-0.00061	0.006714
3.06	0.000763	-0.012054	-0.004883	-0.008392	-0.005493	0.010986	0.038757	-0.001526	0	-0.021667	0.008698	-0.01709	-0.083466	-0.014343	0.000153	0.009155	0.012207	-0.011749	0.93307	-0.059357	-0.6778	0.14786	0.31372	0.083771	0.62775	-0.005035	0.007019	-0.015106	-0.11459	0.42175	0.011292	-0.002899
3.061	-0.023804	-0.000305	-0.018616	-0.011902	-0.001831	0.00412	0.010223	-0.004578	-0.003357	0.005035	0.012512	-0.03067	-0.1033	-0.010681	-0.000458	0.013123	-0.059967	0.009918	1.2453	-0.001678	0.27237	0.067139	0.14053	0.3305	0.55359	-0.007324	0.048981	-0.011902	0.022888	-0.019836	-0.001221	-0.005951
3.062	-0.02594	0.021362	-0.077667	-0.013123	-0.010376	-0.007019	-0.026855	-0.007782	-0.005341	0.012512	0.008698	-0.035248	-0.061798	0.015869	0.005951	0.00824	-0.036011	0.074768	1.4201	-0.048065	0.54077	-0.13718	-0.056458	0.10742	0.035248	-0.001831	0.052185	-0.040436	0.51346	0.11246	-0.001526	-0.007477
3.063	0.009766	0.00473	-0.029297	-0.015259	-0.008392	-0.014191	-0.039978	0.005035	0.014038	-0.019684	0.007477	-0.001984	-0.014648	0.005951	0.014496	0.018158	-0.023804	0.065002	0.51636	-0.064087	0.55191	-0.19928	-0.23193	0.0737	-0.10132	0.001984	-0.06012	-0.024719	0.61951	0.14664	-0.003052	-0.001526
3.064	0.012512	0.032654	-0.04776	-0.023956	-0.002136	-0.018616	-0.018311	0.001373	0.005798	-0.016937	-0.001373	0.00946	0.019226	0.005035	0.003204	0.011444	-0.077057	0.16449	0.031738	-0.032959	0.15305	-0.16144	-0.3157	0.15106	-0.015259	0	-0.032043	0.004883	0.37674	0.23392	0	0.001221
3.065	0.003967	0.028076	0.017395	-0.004578	-0.007935	-0.020752	-0.010529	0.001068	-0.006256	0.000305	0.007019	-0.028534	-0.010223	0.010376	-0.001984	0.010834	-0.030823	0.29266	-0.27832	0.06897	0.042877	-0.046082	-0.22766	0.10925	0.1207	0.001221	0.037689	-0.007629	-0.61401	0.24109	0.000458	0.001068
3.066	0.003662	0.021667	-0.011444	0.002594	-0.004272	-0.022125	-0.006256	0.010681	0.006256	0.021057	0.010071	-0.042725	-0.033112	-0.014496	-0.000763	0.002747	-0.011292	0.2269	-0.63431	0.068665	0.019836	-0.077667	-0.10941	0.043793	0.18005	0.011444	0.041656	-0.022736	-0.77225	0.080414	0.001068	-0.009766
3.067	0.006714	-0.02121	-0.053558	0.016022	-0.005035	-0.007782	0.002899	-0.003357	-0.001221	0.009003	0.005035	-0.011292	-0.032654	-0.017548	-0.005188	0.016327	0.001526	0.11826	-0.24231	0.029449	0.006714	0.000458	0.26108	0.092468	0.06897	0.016937	0.012054	-0.023193	-0.26962	0.009613	0.000458	-0.00824
3.068	0.009308	-0.017548	0.11475	0.039063	-0.005493	-0.014648	-0.005341	-0.001068	0.005035	-0.005798	0.005493	-0.000916	-0.015564	-0.023193	-0.003967	0.014496	-0.04837	0.11566	-0.77805	0.000458	0.1416	0.1152	0.29175	0.050507	0.037689	0.026093	0.052948	-0.032196	-0.83359	-0.060425	0.001526	-0.018005
3.069	0.011139	0.007477	0.063782	0.03006	0.001068	-0.004578	-0.002594	0.007019	0.01236	-0.030212	0.01297	-0.007324	-0.017548	-0.016327	0.001068	0.002289	-0.042877	0.050049	-1.738	0.015869	0.35736	0.11475	0.30472	-0.02121	0.021362	0.035248	0.13504	-0.038605	-0.88898	-0.093079	-0.001221	-0.015564
3.07	0.004578	-0.016632	0.10895	0.019073	-0.012512	-0.013733	0.005035	0.004425	0.00351	-0.098877	0.013428	-0.009003	-0.049896	-0.029449	-0.007782	0.007019	-0.010986	0.042267	-1.7715	0.000916	0.3093	0.016632	0.31372	-0.12009	-0.050964	0.041809	0.13855	-0.05127	-0.33234	-0.074158	-0.003052	-0.012054
3.071	0.00885	-0.013733	0.055695	0.009766	-0.005798	0.004578	0.008087	0.002441	0.007629	-0.14069	0.009003	0.002899	-0.043182	-0.032349	-0.01236	0.003357	-0.027313	0.041199	-0.3064	-0.14069	-0.061646	0.042114	0.42114	-0.15823	-0.11032	0.032043	0.019531	-0.12131	0.016632	-0.21759	-0.001831	-0.007019
3.072	0.007782	-0.044861	0.016022	0.014801	-0.00412	-0.014191	0.036316	0.029907	-0.004883	-0.089264	0.010223	-0.004425	-0.012665	-0.027771	-0.001526	0.003967	-0.020447	0.024872	0.13763	-0.13519	-0.18921	0.14969	0.50232	-0.09201	-0.17258	0.032654	-0.082092	-0.16342	-0.046539	-0.45136	-0.00061	-0.002136
3.073	0.003967	-0.052185	0.031891	0.009155	-0.007172	0.01236	0.02182	0.024567	-0.00351	0.005951	0.007172	-0.045624	-0.004578	-0.011597	0.003052	0.011749	-0.062103	-0.070496	0.015869	-0.030975	-0.099182	0.20142	0.439	0.019684	-0.14358	0.050659	-0.11017	-0.22537	0.044861	-0.73196	-0.004425	-0.000305
3.074	0.010681	-0.020599	0.009308	0.011749	-0.009155	0.016632	0.021057	-0.001373	-0.003967	0.065765	0.011902	-0.012054	0.006866	-0.006409	0.002747	0.021362	-0.051117	-0.15671	-0.31921	0.050354	0.066528	0.065002	0.29816	0.064545	-0.015411	0.074158	-0.1001	-0.036469	0.32364	-0.55023	0.001373	-0.009003
3.075	0.006866	-0.02121	0.002289	0.021057	-0.003052	0.022583	0.020752	0.00061	-0.003815	0.077972	0.009918	-0.011444	-0.015411	-0.040894	0.002289	0.00824	-0.011597	-0.21896	-0.16281	0.072174	0.11459	-0.031128	0.19073	0.31158	0.23789	0.061951	-0.030823	0.19867	0.32089	0.059814	0	-0.013123
3.076	0.005798	-0.017548	0.002289	0.004883	-0.007629	0.029297	0.026703	0.000763	-0.010681	0.059662	0.009308	-0.018463	-0.033264	-0.025635	0.005493	0.002594	-0.022278	-0.19928	1.1281	0.02243	-0.007172	-0.076752	-0.039978	0.5867	0.49789	-0.040283	-0.022278	0.14481	0.6218	0.24902	-0.000153	-0.019836
3.077	0.00061	-0.013733	-0.026398	0.001221	-0.003052	0.034943	0.007477	0.00061	-0.00351	0.0354	0.009308	-0.014496	-0.032806	-0.02121	0.007019	0.01236	0.069122	-0.15015	1.254	0.061493	-0.098572	-0.028381	-0.18463	0.53009	0.97015	-0.096436	0.010376	0.14679	0.50491	0.2739	0.000916	-0.015869
